<svg id="Group_358" data-name="Group 358" xmlns="http://www.w3.org/2000/svg" viewBox="0 0 17.71 21.289">
  <defs>
    <style>
      .cls-1 {
        fill: #fff;
      }
    </style>
  </defs>
  <path id="XMLID_1_" class="cls-1" d="M8.765,5.33a3.375,3.375,0,1,0,3.375,3.375A3.38,3.38,0,0,0,8.765,5.33Zm0,4.636A1.266,1.266,0,1,1,10.026,8.7,1.26,1.26,0,0,1,8.765,9.966Z" transform="translate(0.09 0.089)"/>
  <path id="Path_66" data-name="Path 66" class="cls-1" d="M9.872,0V2.135A6.735,6.735,0,0,1,13.145,14l-.081.061-.071.071L8.825,18.3,4.433,13.908l-.366-.366A6.739,6.739,0,0,1,7.849,2.135V0A8.854,8.854,0,0,0,2.562,15.026h0l6.263,6.263,5.653-5.653A8.854,8.854,0,0,0,9.872,0Z"/>
</svg>
