<svg xmlns="http://www.w3.org/2000/svg" viewBox="0 0 124.097 125.918">
  <defs>
    <style>
      .cls-1 {
        fill: #1d1d1d;
      }
    </style>
  </defs>
  <g id="muscle" transform="translate(-1.528 0)">
    <g id="Group_130" data-name="Group 130" transform="translate(1.528 12.205)">
      <g id="Group_129" data-name="Group 129" transform="translate(0)">
        <path id="Path_49" data-name="Path 49" class="cls-1" d="M102.883,54.817q-.667-.845-1.274-1.625c-3.92-5.051-5.911-10.68-7.668-15.646-1.251-3.535-2.331-6.587-3.906-8.775-4.3-5.976-20.492-8.395-24.022-8.287-3.817.113-5.4,3.382-5.883,6.01a8.711,8.711,0,0,0-3.985,2.381c-3.389,3.558,1.992,11.987,6.7,16.563,3.763,3.662,6.358,3.484,8.645,3.333a10.292,10.292,0,0,1,3.21.141c2.823.639,5.565,2.85,6.767,3.923-1.1,19.06,2.075,28.445,3.463,32.516a37.185,37.185,0,0,1-4.054-.7c-8.21-15.194-25.223-13.24-30.4-12.243C43.092,61.046,30.506,57.29,21,57.588a119.862,119.862,0,0,1-14.5-.286,2.037,2.037,0,0,0-2.136,1.365c-.287.836-6.91,20.7,1.167,40.109A289.152,289.152,0,0,0,22.78,133.215a2.032,2.032,0,0,0,2.783.691,34.686,34.686,0,0,0,14.6-16.365c18.313,7.163,37.929,4.565,51.374,1.025a121.456,121.456,0,0,0,25.908-9.981,2.04,2.04,0,0,0,1.026-1.511C122.124,79.249,110.08,63.954,102.883,54.817Zm11.68,50.69c-6.218,3.2-43.455,21.065-74.808,7.47a2.04,2.04,0,0,0-2.781,1.367c-.023.089-2.287,8.524-11.771,14.969a289.425,289.425,0,0,1-15.926-32.1C3.021,82.175,6.445,66.347,7.762,61.486c2.348.158,7.019.373,13.363.167,8.712-.293,20.276,3.269,26.623,14.081a2.034,2.034,0,0,0,2.309.928c.2-.056,19.649-5.355,27.618,10.657A2.033,2.033,0,0,0,79,88.385c8.119,2.031,9.294.719,9.86.086,1.033-1.152.594-2.438-.069-4.385C87.468,80.2,84.367,71.11,85.582,52.136A2.033,2.033,0,0,0,85,50.582c-.181-.183-4.472-4.518-9.409-5.637a14.152,14.152,0,0,0-4.382-.231c-1.984.132-3.072.206-5.535-2.191-4.4-4.28-6.851-9.629-6.52-10.912a4.677,4.677,0,0,1,2.861-1.344,2.035,2.035,0,0,0,2.006-2.012c0-.036.1-3.645,2.108-3.7.089,0,.183,0,.282,0,4.539,0,17.6,2.831,20.319,6.6,1.234,1.716,2.224,4.515,3.37,7.755,1.767,5,3.968,11.211,8.29,16.783q.617.793,1.293,1.648C106.829,66.406,117.576,80.05,114.564,105.507Z" transform="translate(-1.528 -20.481)"/>
      </g>
    </g>
    <g id="Group_132" data-name="Group 132" transform="translate(93.082 0)">
      <g id="Group_131" data-name="Group 131" transform="translate(0 0)">
        <path id="Path_50" data-name="Path 50" class="cls-1" d="M170.842.6a2.033,2.033,0,0,0-2.876,0l-12.2,12.2a2.034,2.034,0,1,0,2.876,2.876l12.2-12.2A2.033,2.033,0,0,0,170.842.6Z" transform="translate(-155.166 0)"/>
      </g>
    </g>
    <g id="Group_134" data-name="Group 134" transform="translate(99.183 16.27)">
      <g id="Group_133" data-name="Group 133">
        <path id="Path_51" data-name="Path 51" class="cls-1" d="M189.669,28.582a2.033,2.033,0,0,0-2.645-1.133l-20.34,8.136a2.034,2.034,0,1,0,1.512,3.777l20.34-8.136A2.035,2.035,0,0,0,189.669,28.582Z" transform="translate(-165.405 -27.303)"/>
      </g>
    </g>
    <g id="Group_136" data-name="Group 136" transform="translate(105.285 34.577)">
      <g id="Group_135" data-name="Group 135">
        <path id="Path_52" data-name="Path 52" class="cls-1" d="M195.969,59.807a2.034,2.034,0,0,0-2.27-1.766l-16.272,2.034a2.033,2.033,0,1,0,.5,4.035L194.2,62.077A2.034,2.034,0,0,0,195.969,59.807Z" transform="translate(-175.645 -58.024)"/>
      </g>
    </g>
    <g id="Group_138" data-name="Group 138" transform="translate(40.197 81.363)">
      <g id="Group_137" data-name="Group 137">
        <path id="Path_53" data-name="Path 53" class="cls-1" d="M108.824,147.662a2.035,2.035,0,0,0-2.8-.647c-14.771,9.228-35.989-9.759-36.2-9.952a2.034,2.034,0,0,0-2.736,3.01,66.985,66.985,0,0,0,13.68,9.213c5.75,2.875,11.161,4.316,16.068,4.316a21.044,21.044,0,0,0,11.345-3.139A2.034,2.034,0,0,0,108.824,147.662Z" transform="translate(-66.419 -136.536)"/>
      </g>
    </g>
    <g id="Group_140" data-name="Group 140" transform="translate(45.153 61.01)">
      <g id="Group_139" data-name="Group 139">
        <path id="Path_54" data-name="Path 54" class="cls-1" d="M83.794,113.669,78.58,103.49a2.034,2.034,0,1,0-3.62,1.854l5.214,10.179a2.034,2.034,0,1,0,3.62-1.854Z" transform="translate(-74.736 -102.382)"/>
      </g>
    </g>
  </g>
</svg>
